<svg xmlns="http://www.w3.org/2000/svg" width="928" height="1148" viewBox="0 0 928 1148"><path d="M450 205.616c-41.314 2.668-68.713 7.941-101.167 19.472-69.384 24.652-129.759 70.48-173.802 131.925-38.99 54.395-62.863 122.415-66.505 189.487-.328 6.05-.806 13.903-1.062 17.451-.692 9.601 1.321 41.597 3.62 57.549 8.24 57.168 27.673 108.245 59.092 155.317 57.377 85.962 148.5 142.465 251.189 155.756 16.73 2.166 53.829 2.958 71.135 1.52 54.903-4.563 105.357-20.954 153.206-49.771C712.225 844.261 765.215 781.883 793.793 710c20.125-50.622 29.599-107.691 26.289-158.362-5.152-78.891-27.8-141.86-72.883-202.638-54.178-73.038-137.334-124.081-226.293-138.903-19.885-3.314-54.809-5.52-70.906-4.481m-6.284 22.507c-68.888 4.155-135.643 30.666-189.515 75.264-13.162 10.897-38.031 35.904-47.846 48.113-42.372 52.706-66.517 110.994-74.975 181-2.312 19.132-2.306 61.08.01 78.5 10.753 80.856 43.299 148.584 98.291 204.545 49.273 50.139 113.019 82.501 185.842 94.343 66.423 10.802 139.604-1.606 201.288-34.128 73.81-38.916 129.483-101.965 159.171-180.26 10.324-27.228 16.202-50.991 20.655-83.5 2.414-17.63 2.424-64.282.017-82.5-5.725-43.338-17.332-81.946-35.175-117-17.234-33.858-37.166-61.081-64.142-87.607-27.693-27.23-52.675-45.377-85.837-62.349-40.205-20.577-81.876-31.691-129.5-34.539-18.094-1.082-18.396-1.082-38.284.118M429 431.06c-35.461 2.175-68.164 16.278-91.451 39.44-16.001 15.915-26.356 32.925-33.47 54.98-5.637 17.478-6.583 24.193-6.553 46.52.029 21.284 1.028 28.155 6.689 46 18.293 57.663 74.327 94 144.955 94 39.605 0 68.741-8.976 94.543-29.127 8.369-6.536 18.184-16.568 18.248-18.652.045-1.485-33.812-37.221-35.265-37.221-.535 0-3.948 2.414-7.585 5.363-15.749 12.777-25.481 17.99-41.62 22.295-8.855 2.362-11.867 2.669-26.491 2.707-14.873.039-17.486-.223-26.5-2.658-30.092-8.13-51.269-26.857-60.003-53.063-1.44-4.321-2.328-8.146-1.974-8.5s48.868-.869 107.81-1.144l107.167-.5.839-9c.969-10.379-.548-33.747-2.946-45.382-5.731-27.818-17.35-50.172-35.526-68.354-20.631-20.638-52.187-35.151-81.045-37.276-14.466-1.065-18.491-1.123-29.822-.428m-4.925 53.027c-22.908 4.495-43.064 19.371-54.453 40.191-2.589 4.734-5.891 14.206-7.135 20.472l-.646 3.25H516v-2.106c0-4.061-3.178-14.46-6.537-21.394-9.937-20.506-28.897-35.305-51.325-40.058-7.262-1.539-26.979-1.745-34.063-.355M630.5 629.349c-11.47 3.789-20.369 11.601-25.803 22.651-3.036 6.173-3.197 7.081-3.197 18.052 0 11.342.068 11.69 3.766 19.171 8.347 16.889 26.89 26.214 45.511 22.886 19.653-3.512 32.7-16.89 35.513-36.414 1.194-8.291-.335-17.008-4.502-25.654-3.248-6.739-11.624-14.599-19.514-18.311-6.082-2.862-7.846-3.213-17.274-3.445-6.691-.164-11.951.222-14.5 1.064" fill="#ff4d2e" fill-rule="evenodd"/><path d="M0 574.001v574.001l464.25-.251 464.25-.251.251-573.75L929.002 0H0zm.497.499c0 315.7.114 444.701.253 286.668s.139-416.333 0-574S.497 258.8.497 574.5M450 205.616c-41.314 2.668-68.713 7.941-101.167 19.472-69.384 24.652-129.759 70.48-173.802 131.925-38.99 54.395-62.863 122.415-66.505 189.487-.328 6.05-.806 13.903-1.062 17.451-.692 9.601 1.321 41.597 3.62 57.549 8.24 57.168 27.673 108.245 59.092 155.317 57.377 85.962 148.5 142.465 251.189 155.756 16.73 2.166 53.829 2.958 71.135 1.52 54.903-4.563 105.357-20.954 153.206-49.771C712.225 844.261 765.215 781.883 793.793 710c20.125-50.622 29.599-107.691 26.289-158.362-5.152-78.891-27.8-141.86-72.883-202.638-54.178-73.038-137.334-124.081-226.293-138.903-19.885-3.314-54.809-5.52-70.906-4.481m-6.284 22.507c-68.888 4.155-135.643 30.666-189.515 75.264-13.162 10.897-38.031 35.904-47.846 48.113-42.372 52.706-66.517 110.994-74.975 181-2.312 19.132-2.306 61.08.01 78.5 10.753 80.856 43.299 148.584 98.291 204.545 49.273 50.139 113.019 82.501 185.842 94.343 66.423 10.802 139.604-1.606 201.288-34.128 73.81-38.916 129.483-101.965 159.171-180.26 10.324-27.228 16.202-50.991 20.655-83.5 2.414-17.63 2.424-64.282.017-82.5-5.725-43.338-17.332-81.946-35.175-117-17.234-33.858-37.166-61.081-64.142-87.607-27.693-27.23-52.675-45.377-85.837-62.349-40.205-20.577-81.876-31.691-129.5-34.539-18.094-1.082-18.396-1.082-38.284.118M429 431.06c-35.461 2.175-68.164 16.278-91.451 39.44-16.001 15.915-26.356 32.925-33.47 54.98-5.637 17.478-6.583 24.193-6.553 46.52.029 21.284 1.028 28.155 6.689 46 18.293 57.663 74.327 94 144.955 94 39.605 0 68.741-8.976 94.543-29.127 8.369-6.536 18.184-16.568 18.248-18.652.045-1.485-33.812-37.221-35.265-37.221-.535 0-3.948 2.414-7.585 5.363-15.749 12.777-25.481 17.99-41.62 22.295-8.855 2.362-11.867 2.669-26.491 2.707-14.873.039-17.486-.223-26.5-2.658-30.092-8.13-51.269-26.857-60.003-53.063-1.44-4.321-2.328-8.146-1.974-8.5s48.868-.869 107.81-1.144l107.167-.5.839-9c.969-10.379-.548-33.747-2.946-45.382-5.731-27.818-17.35-50.172-35.526-68.354-20.631-20.638-52.187-35.151-81.045-37.276-14.466-1.065-18.491-1.123-29.822-.428m-4.925 53.027c-22.908 4.495-43.064 19.371-54.453 40.191-2.589 4.734-5.891 14.206-7.135 20.472l-.646 3.25H516v-2.106c0-4.061-3.178-14.46-6.537-21.394-9.937-20.506-28.897-35.305-51.325-40.058-7.262-1.539-26.979-1.745-34.063-.355M630.5 629.349c-11.47 3.789-20.369 11.601-25.803 22.651-3.036 6.173-3.197 7.081-3.197 18.052 0 11.342.068 11.69 3.766 19.171 8.347 16.889 26.89 26.214 45.511 22.886 19.653-3.512 32.7-16.89 35.513-36.414 1.194-8.291-.335-17.008-4.502-25.654-3.248-6.739-11.624-14.599-19.514-18.311-6.082-2.862-7.846-3.213-17.274-3.445-6.691-.164-11.951.222-14.5 1.064" fill-rule="evenodd"/></svg>