<svg xmlns="http://www.w3.org/2000/svg" width="1024" height="1024" viewBox="0 0 1024 1024"><path d="M0 512.001v512.001l512.25-.251 512.25-.251.251-511.75.251-511.75H0zm.496.499c0 281.6.114 396.651.254 255.668.14-140.982.14-371.382 0-512C.61 115.551.496 230.9.496 512.5m254.266-287.558c-14.902 4.764-27.221 18.074-30.702 33.173-.667 2.892-1.015 89.345-1.024 253.885-.01 205.188.225 250.388 1.325 254.5 3.596 13.44 12.131 23.669 25.1 30.078l7.935 3.922 252.805.26 252.805.259 6.134-2.066c14.715-4.957 24.859-15.108 29.823-29.843 2.028-6.02 2.037-7.171 2.037-256.368 0-276.425.473-256.324-6.292-267.578-5.865-9.755-16.534-17.968-26.944-20.739-4.45-1.185-44.084-1.395-256.264-1.359-240.626.04-251.237.117-256.738 1.876" fill="#cecece" fill-rule="evenodd"/><path d="M369 511.5V730h143.702l60.43-40.75c33.236-22.413 65.467-44.125 71.624-48.25l11.193-7.5.026-170.25L656 293H369zm26 .5v192h108.199l56.651-38.071 63.4-42.607 6.75-4.535-.009-144.143c-.004-79.279-.292-146.507-.639-149.394l-.631-5.25H395zm103.5-74.568c-14.603 2.884-25.064 8.22-35.313 18.011-14.093 13.465-19.982 27.156-20.9 48.594-.456 10.652-.218 13.81 1.583 21 6.604 26.363 24.937 43.989 53.13 51.08 3.509.882 11.112 1.382 21 1.38 17.359-.003 26.209-1.826 37.142-7.654C562.634 565.85 574 556.426 574 554.207c0-.962-3.996-5.726-8.88-10.587l-8.879-8.839-5.371 4.366c-24.199 19.676-61.967 13.218-73.97-12.647-1.021-2.2-1.866-5.013-1.878-6.25L475 518h52.965C588.76 518 583 519.083 583 507.654c0-20.994-8.839-42.194-22.797-54.679-6.389-5.714-18.652-12.15-27.703-14.538-8.361-2.206-25.373-2.709-34-1.005m.616 27.522c-2.961 1.095-6.433 2.679-7.716 3.52-7.957 5.213-14.381 14.036-16.238 22.3l-.949 4.226 8.643.154c27.153.483 46.004.503 56.442.059l11.797-.502-.638-3.105c-2.194-10.663-9.427-19.989-19.257-24.828-5.896-2.903-7.635-3.272-16.642-3.529-8.082-.231-11.116.104-15.442 1.705" fill="#ff4d2e" fill-rule="evenodd"/><path d="M257.5 224.386c-16.425 3.994-30.454 18.916-33.51 35.643-.667 3.651-.921 90.225-.75 255 .245 235.054.362 249.769 2.019 254.62 4.172 12.216 15.054 23.506 27.498 28.532l5.743 2.319h507l5.725-2.312c13.457-5.436 23.586-16.36 27.79-29.971 1.958-6.339 1.985-9.87 1.985-255.612 0-271.886.376-254.009-5.593-265.788-5.377-10.612-18.011-20.102-30.206-22.692-7.922-1.682-500.752-1.429-507.701.261M369 511.5V730h143.702l60.43-40.75c33.236-22.413 65.467-44.125 71.624-48.25l11.193-7.5.026-170.25L656 293H369zm26 .5v192h108.199l56.651-38.071 63.4-42.607 6.75-4.535-.009-144.143c-.004-79.279-.292-146.507-.639-149.394l-.631-5.25H395zm103.5-74.568c-14.603 2.884-25.064 8.22-35.313 18.011-14.093 13.465-19.982 27.156-20.9 48.594-.456 10.652-.218 13.81 1.583 21 6.604 26.363 24.937 43.989 53.13 51.08 3.509.882 11.112 1.382 21 1.38 17.359-.003 26.209-1.826 37.142-7.654C562.634 565.85 574 556.426 574 554.207c0-.962-3.996-5.726-8.88-10.587l-8.879-8.839-5.371 4.366c-24.199 19.676-61.967 13.218-73.97-12.647-1.021-2.2-1.866-5.013-1.878-6.25L475 518h52.965C588.76 518 583 519.083 583 507.654c0-20.994-8.839-42.194-22.797-54.679-6.389-5.714-18.652-12.15-27.703-14.538-8.361-2.206-25.373-2.709-34-1.005m.616 27.522c-2.961 1.095-6.433 2.679-7.716 3.52-7.957 5.213-14.381 14.036-16.238 22.3l-.949 4.226 8.643.154c27.153.483 46.004.503 56.442.059l11.797-.502-.638-3.105c-2.194-10.663-9.427-19.989-19.257-24.828-5.896-2.903-7.635-3.272-16.642-3.529-8.082-.231-11.116.104-15.442 1.705" fill="#040404" fill-rule="evenodd"/></svg>