<svg xmlns="http://www.w3.org/2000/svg" width="512" height="512" viewBox="0 0 512 512" fill="none">
  <rect width="512" height="512" rx="112" fill="#0A0A0A"/>
  <g transform="translate(112 62) scale(0.31)">
    <path d="M154 551v485h320.945l92.778-61.798c51.027-33.99 123.489-82.197 161.027-107.128L797 821.745V66H154zm58.249-.252L212.5 978.5l121.022.254 121.021.254 141.979-94.754L738.5 789.5v-666l-263.251-.252-263.251-.252zm245.858-166.677c-27.974 3.164-53.321 12.314-76.184 27.5-11.086 7.364-30.454 26.989-37.924 38.429-23.095 35.365-31.361 77.296-23.957 121.52 12.721 75.977 79.358 126.444 166.996 126.475 40.326.014 74.645-9.537 100.962-28.098 8.679-6.122 27.211-23.719 26.787-25.437-.158-.642-9.374-10.526-20.48-21.965l-20.194-20.799-5.806 5.308c-17.68 16.16-37.656 25.974-59.142 29.056-13.477 1.932-38.459.738-50.502-2.414-35.238-9.224-60.351-33.908-68.059-66.896l-.642-2.75h120.46c92.725 0 120.631-.277 121.203-1.202.408-.661.942-8.478 1.185-17.37 1.31-47.876-12.453-86.659-41.804-117.799-19.332-20.51-51.674-37.054-82.506-42.204-11.186-1.869-39.191-2.621-50.393-1.354m3.553 57.912c-13.209 2.393-28.268 8.709-38.124 15.99-16.31 12.05-30.778 34.92-33.181 52.454l-.627 4.573h86.636c83.459 0 86.636-.067 86.636-1.84 0-4.481-4.414-18.414-8.446-26.66-10.213-20.887-28.332-35.827-51.562-42.516-8.399-2.419-32.567-3.589-41.332-2.001" fill="#FF4D2E"/>
  </g>
</svg>
