<svg xmlns="http://www.w3.org/2000/svg" width="1408" height="768" viewBox="0 0 1408 768"><path d="M299.459 608.246c-.272.71-.374 12.532-.227 26.272l.268 24.982 20.25.271 20.25.27V650h-29v-12h24v-10h-24v-11h28.11l-.305-4.75-.305-4.75-19.273-.272c-15.011-.211-19.383.014-19.768 1.018m50.037-.097c-.292.763-.411 12.629-.264 26.369l.268 24.982 16-.021c14.497-.02 16.469-.236 20.988-2.299 2.743-1.253 6.048-3.268 7.345-4.479 13.161-12.288 9.328-35.559-7.039-42.74-4.605-2.02-7.341-2.379-21.03-2.761-12.794-.356-15.835-.179-16.268.949M411 633.448V660h11v-15.059c0-8.543.385-14.821.89-14.509.489.302 3.977 5.714 7.75 12.026 6.426 10.751 7.061 11.479 10.035 11.509 3.027.031 3.518-.563 10.5-12.717l7.325-12.75.276 15.799.275 15.799 5.725-.299 5.724-.299-.202-7c-.112-3.85-.224-15.686-.25-26.302L470 606.895l-5.143.303-5.143.302-9.107 15.726c-5.009 8.65-9.332 15.733-9.607 15.74-.275.008-4.802-7.069-10.06-15.726l-9.56-15.74-5.19-.302-5.19-.303zm84.462-24.082c-6.291 2.929-12.792 10.17-14.451 16.096-1.712 6.112-.897 15.075 1.892 20.838 2.685 5.547 9.446 11.156 15.491 12.853 6.589 1.849 16.691 1.345 22.25-1.11 21.638-9.558 20.697-41.946-1.439-49.489-7.002-2.386-17.659-2.022-23.743.812M546 633.55v26.55l5.75-.3 5.75-.3.5-15.38.5-15.381 12.817 15.631L584.134 660H594v-53h-12v32.356l-2.75-3.557c-1.513-1.957-7.406-9.237-13.096-16.178L555.808 607H546zm61-.182V660h13.451c16.269 0 22.299-1.165 27.817-5.374 7.028-5.361 9.912-10.397 10.471-18.287.713-10.071-.914-14.863-7.079-20.853-2.853-2.772-6.948-5.604-9.16-6.335-2.237-.739-10.941-1.562-19.75-1.868l-15.75-.547zm83 .132V660h11v-15.059c0-8.644.383-14.823.898-14.504.494.305 3.9 5.724 7.569 12.042 3.669 6.319 7.069 11.734 7.556 12.035s1.954.279 3.26-.049c1.726-.433 4.075-3.551 8.586-11.394 9.72-16.899 9.063-16.984 9.099 1.179L738 660h11v-53.105l-5.216.303-5.216.302-9.034 15.419c-4.969 8.48-9.42 15.455-9.893 15.5-.472.044-3.943-5.094-7.713-11.419-13.035-21.87-11.443-20-17.02-20H690zm85.748-25.073c-7.876 2.81-13.933 9.214-16.368 17.304-5.272 17.519 7.597 34.547 26.164 34.62 9.779.039 15.208-1.994 21.14-7.914 4.038-4.031 5.563-6.474 6.902-11.056 4.025-13.774-3.15-28.249-16.334-32.954-2.064-.737-6.902-1.339-10.752-1.339s-8.688.602-10.752 1.339M824 633.521v26.52l20.25-.27 20.25-.271.305-4.75.305-4.75H836v-12h24v-10h-24v-11h27v-10h-39zm50-.13V660h12v-14.698l9.549-.628c10.741-.705 15.044-2.308 19.343-7.204 5.278-6.011 5.275-16.932-.006-22.947-4.856-5.531-9.464-6.819-26.136-7.308l-14.75-.433zm61-24.148c-6.084 3.252-9 7.747-9 13.87 0 3.958.551 5.445 3.09 8.337 3.066 3.492 4.361 4.018 21.206 8.621 7.175 1.96 7.274 9.169.144 10.506-4.518.848-10.664-.14-16.256-2.614-2.421-1.071-4.809-1.695-5.308-1.386-1.312.811-3.955 7.487-3.35 8.464.281.456 3.091 1.799 6.243 2.985 8.283 3.115 20.521 3.035 26.992-.176 8.56-4.248 11.742-13.232 7.279-20.551-2.46-4.035-5.921-5.823-15.871-8.2-4.348-1.038-8.865-2.401-10.038-3.029-2.705-1.448-2.763-5.188-.118-7.582 2.611-2.363 11.967-2.422 17.414-.109 4.391 1.864 4.834 1.64 6.992-3.529l1.524-3.649-3.722-1.799c-2.521-1.218-6.784-1.922-13.221-2.181-8.538-.344-9.956-.14-14 2.022m37-.893c0 .742 2.968 10.529 6.596 21.75 3.627 11.22 7.267 22.557 8.088 25.194l1.492 4.793 6.463-.293 6.462-.294 5.789-17.5 5.789-17.5 5.839 17.75 5.838 17.75h12.547l8.187-25.25c4.503-13.888 8.407-25.837 8.676-26.554.375-.999-.883-1.233-5.388-1l-5.878.304-5.908 18c-3.249 9.9-6.172 17.325-6.495 16.5-.322-.825-3.064-8.925-6.092-18l-5.505-16.5-5.559-.294-5.559-.294-5.894 18.041c-3.242 9.922-6.197 17.705-6.568 17.294s-2.823-7.722-5.448-16.247-5.172-16.288-5.658-17.25c-1.132-2.24-11.814-2.602-11.814-.4m99.866 5.4c-1.677 3.712-5.67 12.825-8.873 20.25-3.204 7.425-6.987 16.1-8.409 19.279-1.421 3.178-2.584 6.012-2.584 6.297s2.753.385 6.118.222l6.119-.298 2.131-5.249 2.132-5.249 12.507-.001 12.507-.001 2.024 5.25 2.024 5.25 6.219.298c3.42.163 6.219-.109 6.219-.605 0-.497-3.138-7.951-6.974-16.564-3.836-8.614-8.636-19.592-10.668-24.395s-4.123-9.296-4.648-9.984c-.574-.752-3.315-1.25-6.874-1.25h-5.92zm-710.425 4.544c-.273.712-.372 8.024-.219 16.25l.278 14.956 7.5.279c13.256.494 20.006-4.924 20.14-16.165.132-11.042-6.537-16.614-19.883-16.614-5.066 0-7.473.398-7.816 1.294m138.481.98c-9.786 6.595-10.713 19.011-2.028 27.18 2.641 2.483 4.133 3.015 9.373 3.337 5.278.325 6.77.023 9.733-1.973 7.164-4.826 9.211-15.369 4.534-23.35-4.336-7.399-14.659-9.88-21.612-5.194M619 633.5V650l7.25-.022c12.223-.037 18.966-4.564 20.328-13.648 1.277-8.516-2.823-15.636-10.477-18.194-1.87-.625-6.482-1.136-10.25-1.136H619zm161.021-15.438c-6.024 2.535-9.271 7.99-9.271 15.574 0 9.751 6.328 16.367 15.648 16.36 8.763-.006 14.804-5.494 16.185-14.702.766-5.107-2.44-12.497-6.792-15.656-3.135-2.277-12.002-3.163-15.77-1.576M886 625.894V635h6.55c9.687 0 14.45-3.091 14.45-9.378 0-1.381-1.081-3.768-2.403-5.304-2.198-2.555-3.097-2.826-10.5-3.162l-8.097-.368zm191 2.749c-1.925 4.746-3.65 9.018-3.833 9.493s3.352.864 7.857.864c6.156 0 8.064-.31 7.683-1.25-.279-.687-1.972-4.962-3.763-9.5s-3.524-8.247-3.85-8.243-2.169 3.89-4.094 8.636" fill="#fffffb" fill-rule="evenodd"/><path d="M0 384.001v384l704.25-.25 704.25-.251.251-383.75.252-383.75H0zm.495.499c0 211.2.115 297.451.255 191.669s.14-278.583 0-384C.61 86.751.495 173.3.495 384.5M566.67 108.663c-.368.369-.67 93.97-.67 208.004V524l69.25-.073 69.25-.073 68.5-45.677 68.5-45.677v-324l-137.08-.254c-75.394-.139-137.381.049-137.75.417m24.794 25.583c-.263.69-.362 83.154-.221 183.254l.257 182 51.56.207 51.56.208 61.165-40.708 61.164-40.707-.224-142.5-.225-142.5-112.28-.254c-89.296-.203-112.377.002-112.756 1m103.729 110.826c-15.257 1.981-28.044 7.957-38.693 18.083-7.974 7.582-12.598 14.662-16.008 24.51-11.709 33.821 1.911 69.419 32.068 83.812 17.464 8.335 41.447 10.287 60.296 4.906 9.137-2.608 20.224-8.884 25.848-14.631l5.14-5.252-8.675-9.146-8.675-9.146-3.997 3.375c-5.449 4.602-14.072 9.089-20.043 10.43-7.684 1.725-20.175 1.33-27.217-.862-11.924-3.711-18.809-9.266-24.172-19.503-5.569-10.63-10.487-9.648 48.318-9.648h51.384l.603-2.25c1.5-5.6-.074-21.706-3.055-31.25-4.212-13.488-14.052-26.524-25.58-33.889-7.223-4.615-18.094-8.343-27.918-9.575-9.153-1.147-10.525-1.145-19.624.036m1.039 24.926c-6.368 1.349-15.933 6.835-19.809 11.363-4.359 5.093-8.423 13.215-8.423 16.835V301h73v-2.84c0-4.688-5.672-14.68-11.106-19.565-8.288-7.452-22.24-11.015-33.662-8.597M499.792 607.34c-13.804 3.898-23.091 18.474-19.884 31.209 2.534 10.064 7.016 15.707 15.592 19.632 6.811 3.118 18.972 3.221 25.511.216 20.658-9.494 21.106-38.703.752-49.017-5.975-3.028-15.378-3.901-21.971-2.04M780 606.882c-12.882 2.824-22.016 13.926-21.902 26.618.098 10.912 5.235 19.559 14.235 23.962 15.428 7.548 32.708 2.326 39.77-12.02 2.855-5.799 3.119-7.096 2.682-13.187-.288-4.008-1.33-8.409-2.563-10.823-2.524-4.943-8.853-10.833-13.912-12.947-4.485-1.874-13.483-2.662-18.31-1.603m160.5-.008c-10.048 2.65-16.609 10.628-14.837 18.041 1.842 7.705 6.031 10.883 18.004 13.66 8.009 1.857 9.924 2.792 11.41 5.57.927 1.731.751 2.472-1.005 4.227-3.142 3.142-12.98 2.784-19.97-.727l-5.155-2.589-2.144 4.414c-2.603 5.357-2.038 6.307 5.388 9.061 7.856 2.914 20.732 2.746 27.021-.352 6.135-3.022 8.788-7.298 8.788-14.165 0-4.746-.359-5.601-3.75-8.921-3.148-3.083-5.275-4.051-13.25-6.033-9.924-2.467-13-4.16-13-7.158 0-4.896 11.648-6.606 19.797-2.908l4.298 1.951 1.952-4.556c1.074-2.505 1.953-4.768 1.953-5.028s-1.956-1.339-4.346-2.396c-4.853-2.147-16.555-3.303-21.154-2.091M299 633.5V660h41v-10h-28l-.125-4c-.069-2.2-.181-4.788-.25-5.75-.112-1.564 1.176-1.78 12.125-2.031l12.25-.281V628h-25.105l.303-5.25.302-5.25 13.75-.278 13.75-.278V607h-40zm50-.002v26.7l17.25-.379c15.252-.335 17.713-.626 21.25-2.511 16.423-8.756 19.543-31.283 5.981-43.19-6.629-5.821-9.269-6.48-27.731-6.92l-16.75-.4zm62 .002V660h11.947l.276-14.513.277-14.514 7.05 11.764c7.238 12.078 9.561 14.076 13.025 11.201.806-.669 4.493-6.61 8.195-13.203l6.73-11.987.275 15.626.276 15.626H471v-53.1l-5.726.3-5.727.3-9.38 15.842-9.38 15.842-9.632-16.092L421.524 607H411zm134.233-.25.267 26.25 6.224.297 6.225.297.275-15.545.276-15.545 12.5 15.474 12.5 15.474 5.75.024L595 660v-53h-12.949l-.276 15.619-.275 15.62-9.5-11.845C556.016 606.464 556.613 607 550.367 607h-5.4zm60.767.166V660l15.25-.006c17.134-.006 20.579-.67 27.343-5.271 6.73-4.577 10.527-11.688 10.646-19.933.171-11.838-4.354-19.735-14.031-24.487-5.448-2.675-6.47-2.818-22.458-3.137l-16.75-.335zm83.471-25.201c-.279.727-.386 12.563-.239 26.303l.268 24.982h12l-.118-14.75c-.065-8.112.008-14.75.163-14.75.154 0 2.411 3.712 5.016 8.25C714.42 651.939 716.797 655 719.57 655c2.715 0 4.444-2.339 12.43-16.812 2.475-4.486 4.725-8.163 5-8.173s.5 6.621.5 14.734V659.5l5.75.3 5.75.3V607l-5.25.003-5.25.004-8.472 14.608c-4.659 8.035-8.946 15.259-9.527 16.053-.83 1.135-3.076-1.928-10.528-14.362L700.5 607.5l-5.261-.303c-3.664-.21-5.415.099-5.768 1.018m133.98.053c-.268.697-.366 12.51-.219 26.25l.268 24.982 20.75.27 20.75.271V650h-29v-12h24v-10h-24v-11h28v-10h-20.031c-15.255 0-20.148.302-20.518 1.268M874 633.41V660h12v-14.767l9.75-.397c12.265-.499 17.556-2.968 21-9.798 4.924-9.765 1.882-20.293-7.219-24.979-4.575-2.356-6.178-2.586-20.25-2.899L874 606.821zm97.414-24.66c3.945 12.581 11.934 37.402 13.922 43.25l2.549 7.5 6.808.256 6.807.256 5.582-17.256 5.581-17.256 5.619 17 5.62 17h13.494l8.282-25.5c4.555-14.025 8.291-25.837 8.302-26.25s-2.662-.75-5.94-.75h-5.96l-5.811 18.169-5.811 18.17-5.821-18.17-5.822-18.169h-11.669l-5.795 17.479c-3.187 9.613-6.103 17.15-6.482 16.75-.378-.401-1.35-2.979-2.16-5.729s-3.143-10.288-5.184-16.75L983.814 607h-6.474c-5.709 0-6.41.207-5.926 1.75m102.297 0c-.288.962-5.008 11.902-10.489 24.309s-10.279 23.545-10.661 24.75c-.664 2.092-.418 2.191 5.427 2.191h6.122l2.432-5.5 2.433-5.5h24.05l2.433 5.5 2.432 5.5h6.662c4.944 0 6.526-.322 6.136-1.25-.29-.687-4.128-9.186-8.531-18.886-4.402-9.7-9.431-21.062-11.174-25.25l-3.17-7.614h-6.79c-5.601 0-6.881.306-7.312 1.75M362 633.071V649h8.114C383.25 649 389 644.276 389 633.485c0-6.282-3.158-11.828-7.882-13.844-1.99-.849-7.106-1.759-11.368-2.022l-7.75-.478zm139.45-14.664c-3.909 1.703-8.089 6.673-8.965 10.661-2.609 11.877 6.233 22.013 18.042 20.682 5.813-.655 9.963-3.848 12.026-9.251 5.478-14.341-7.561-27.991-21.103-22.092m117.55 14.5c0 15.783.024 15.957 2.25 16.273 4.747.675 16.664-.894 19.145-2.519 5.836-3.824 7.914-14.978 4.042-21.701-2.67-4.637-7.29-6.62-17.187-7.376l-8.25-.631zm160.309-13.96c-10.89 4.944-11.084 23.363-.309 29.26 2.535 1.388 4.903 1.811 8.592 1.535C796.676 649.063 802 643 802 633.333c0-6.542-2.675-11.236-8.013-14.058-5.215-2.758-9.133-2.846-14.678-.328M886 625.407v8.408l5.486.342c7.011.438 11.572-.516 13.215-2.763 1.548-2.117 1.704-7.769.287-10.416-1.257-2.349-6.845-3.965-13.738-3.972L886 617zM1080.169 622c-.551 1.375-2.364 5.763-4.029 9.75l-3.027 7.25h15.858l-2.124-5.25a1595 1595 0 0 1-3.9-9.75c-1.736-4.398-1.799-4.443-2.778-2" fill-rule="evenodd"/><path d="M566.67 108.663c-.368.369-.67 93.97-.67 208.004V524l69.25-.073 69.25-.073 68.5-45.677 68.5-45.677v-324l-137.08-.254c-75.394-.139-137.381.049-137.75.417m24.794 25.583c-.263.69-.362 83.154-.221 183.254l.257 182 51.56.207 51.56.208 61.165-40.708 61.164-40.707-.224-142.5-.225-142.5-112.28-.254c-89.296-.203-112.377.002-112.756 1m103.729 110.826c-15.257 1.981-28.044 7.957-38.693 18.083-7.974 7.582-12.598 14.662-16.008 24.51-11.709 33.821 1.911 69.419 32.068 83.812 17.464 8.335 41.447 10.287 60.296 4.906 9.137-2.608 20.224-8.884 25.848-14.631l5.14-5.252-8.675-9.146-8.675-9.146-3.997 3.375c-5.449 4.602-14.072 9.089-20.043 10.43-7.684 1.725-20.175 1.33-27.217-.862-11.924-3.711-18.809-9.266-24.172-19.503-5.569-10.63-10.487-9.648 48.318-9.648h51.384l.603-2.25c1.5-5.6-.074-21.706-3.055-31.25-4.212-13.488-14.052-26.524-25.58-33.889-7.223-4.615-18.094-8.343-27.918-9.575-9.153-1.147-10.525-1.145-19.624.036m1.039 24.926c-6.368 1.349-15.933 6.835-19.809 11.363-4.359 5.093-8.423 13.215-8.423 16.835V301h73v-2.84c0-4.688-5.672-14.68-11.106-19.565-8.288-7.452-22.24-11.015-33.662-8.597M470.42 626.5c-.001 11 .145 15.636.325 10.303.179-5.333.18-14.333.001-20-.178-5.667-.325-1.303-.326 9.697m75.017 6.5c0 14.575.14 20.538.31 13.25.171-7.288.171-19.212 0-26.5-.17-7.288-.31-1.325-.31 13.25m49.001.5c-.001 14.85.138 21.064.309 13.81.171-7.255.171-19.405.001-27-.17-7.596-.31-1.66-.31 13.19m12 0c-.001 14.85.138 21.064.309 13.81.171-7.255.171-19.405.001-27-.17-7.596-.31-1.66-.31 13.19m82.998 0c0 14.3.141 20.011.312 12.691s.17-19.02-.001-26-.312-.991-.311 13.309m134 0c0 14.3.141 20.011.312 12.691s.17-19.02-.001-26-.312-.991-.311 13.309m-461.975.249.039 15.751 7.5.063 7.5.063-7.225-.355-7.225-.354-.314-15.46-.315-15.459zM422.402 645c0 8.525.154 12.013.341 7.75s.188-11.237 0-15.5c-.187-4.263-.341-.775-.341 7.75m314.995 0c0 7.975.156 11.237.346 7.25s.189-10.513 0-14.5c-.19-3.987-.346-.725-.346 7.25" fill="#ff4d2e" fill-rule="evenodd"/></svg>