<svg xmlns="http://www.w3.org/2000/svg" width="600" height="600" viewBox="0 0 600 600" version="1.1"><path d="M 216 300 L 216 428 258.006 428 L 300.011 428 329.756 407.935 C 346.115 396.899, 364.999 384.187, 371.721 379.685 L 383.942 371.500 383.971 271.750 L 384 172 300 172 L 216 172 216 300 M 232 300.033 L 232 413.081 263.394 412.790 L 294.788 412.500 331.899 387.542 L 369.011 362.584 368.755 275.042 L 368.500 187.500 300.250 187.243 L 232 186.986 232 300.033 M 287.500 257.360 C 277.512 260.633, 268.004 268.144, 264.070 275.870 C 257.614 288.544, 257.382 305.144, 263.492 317 C 266.517 322.867, 269.864 326.664, 275.304 330.395 C 292.602 342.258, 318.611 341.381, 332.923 328.450 L 337.107 324.671 331.837 319.335 C 328.939 316.401, 326.060 314, 325.439 314 C 324.818 314, 323.533 314.858, 322.584 315.908 C 319.267 319.573, 311.039 322.304, 303.266 322.319 C 297.213 322.331, 295.113 321.857, 290.395 319.417 C 284.525 316.379, 279.650 310.806, 278.441 305.750 L 277.783 303 309.267 303 L 340.750 303 341.351 299.993 C 342.203 295.734, 339.637 282.169, 337.002 277.004 C 333.465 270.071, 325.721 262.606, 318.722 259.382 C 313.297 256.883, 311.155 256.486, 302 256.282 C 295.417 256.136, 290.008 256.538, 287.500 257.360 M 292.885 272.380 C 285.543 275.003, 280.133 280.584, 278.470 287.250 L 277.783 290 300.411 290 L 323.038 290 322.425 287.250 C 319.821 275.578, 304.923 268.078, 292.885 272.380" stroke="none" fill="#FF4D2E" fill-rule="evenodd"/><path d="M 148.748 131.420 C 144.032 133.111, 138.827 137.049, 135.445 141.484 C 129.758 148.939, 130 141.907, 130 299.977 C 130 465.761, 129.304 452.435, 138.435 461.565 C 147.566 470.697, 134.178 470, 300.503 470 C 466.404 470, 452.397 470.734, 461.565 461.565 C 470.735 452.395, 470 466.486, 470 299.859 C 470 155.759, 469.964 152.978, 468.010 147.755 C 465.865 142.024, 459.942 135.515, 454 132.359 C 450.639 130.574, 444.578 130.492, 301.500 130.287 C 178.766 130.112, 151.839 130.312, 148.748 131.420 M 216 300 L 216 428 258.006 428 L 300.011 428 329.756 407.935 C 346.115 396.899, 364.999 384.187, 371.721 379.685 L 383.942 371.500 383.971 271.750 L 384 172 300 172 L 216 172 216 300 M 232 300.033 L 232 413.081 263.394 412.790 L 294.788 412.500 331.899 387.542 L 369.011 362.584 368.755 275.042 L 368.500 187.500 300.250 187.243 L 232 186.986 232 300.033 M 287.500 257.360 C 277.512 260.633, 268.004 268.144, 264.070 275.870 C 257.614 288.544, 257.382 305.144, 263.492 317 C 266.517 322.867, 269.864 326.664, 275.304 330.395 C 292.602 342.258, 318.611 341.381, 332.923 328.450 L 337.107 324.671 331.837 319.335 C 328.939 316.401, 326.060 314, 325.439 314 C 324.818 314, 323.533 314.858, 322.584 315.908 C 319.267 319.573, 311.039 322.304, 303.266 322.319 C 297.213 322.331, 295.113 321.857, 290.395 319.417 C 284.525 316.379, 279.650 310.806, 278.441 305.750 L 277.783 303 309.267 303 L 340.750 303 341.351 299.993 C 342.203 295.734, 339.637 282.169, 337.002 277.004 C 333.465 270.071, 325.721 262.606, 318.722 259.382 C 313.297 256.883, 311.155 256.486, 302 256.282 C 295.417 256.136, 290.008 256.538, 287.500 257.360 M 292.885 272.380 C 285.543 275.003, 280.133 280.584, 278.470 287.250 L 277.783 290 300.411 290 L 323.038 290 322.425 287.250 C 319.821 275.578, 304.923 268.078, 292.885 272.380" stroke="none" fill="#000000" fill-rule="evenodd"/></svg>